<svg width="1409" height="1409" viewBox="0 0 1409 1409" fill="none" xmlns="http://www.w3.org/2000/svg">
<mask id="mask0_2314_509" style="mask-type:alpha" maskUnits="userSpaceOnUse" x="0" y="0" width="1409" height="1409">
<circle cx="704.682" cy="704.682" r="703" fill="white" stroke="black" stroke-width="2"/>
</mask>
<g mask="url(#mask0_2314_509)">
<path d="M602.277 218.778L686.803 -0.693246L722.374 -1.11033L782.071 142.461L1245.26 1233.66L1065.46 1309.98L602.277 218.778Z" fill="url(#paint0_linear_2314_509)"/>
<path d="M623.223 145.804L686.795 -0.692321L602.682 218.682L703.682 453.682L341.978 1308.26L162.184 1231.94L623.223 145.804Z" fill="url(#paint1_linear_2314_509)"/>
<path d="M946.158 25.54L1001.68 40.5569L1085.55 77.6819L1168.05 127.182L1251.93 195.932L1304.18 255.057L1352.3 319.682L1392.18 389.807L1410.05 431.058L1427.93 477.808L1441.68 520.432L1454.05 580.932L1465.05 652.432L1466.43 710.183L1460.93 783.057L1451.3 851.807L1432.05 920.557L1404.55 992.057L1378.42 1043.88L946.158 25.54Z" fill="url(#paint2_linear_2314_509)"/>
<path d="M703.307 1067.68L847.682 1411.43H703.307H561.682L703.307 1067.68Z" fill="url(#paint3_linear_2314_509)"/>
<path d="M0.681316 428.306L6.1813 414.556L19.4209 386.395L37.23 352.175L68.7542 301.538L103.04 259.124L138.701 218.083L175.745 182.523L221.028 142.866L267.695 110.062L328.1 75.9086L385.771 49.9706L431.09 33.6027L462.551 25.7896L31.3531 1041.63L18.5565 1020.93L-4.81845 970.056L-22.6934 919.181L-35.0684 875.181L-48.8183 811.931L-55.6934 739.056L-55.6933 667.556L-50.1934 601.556L-35.0684 530.056L-15.8188 470.931L-6.1944 443.431L0.681316 428.306Z" fill="url(#paint4_linear_2314_509)"/>
</g>
<defs>
<linearGradient id="paint0_linear_2314_509" x1="696.682" y1="-47.3181" x2="686.682" y2="1720.68" gradientUnits="userSpaceOnUse">
<stop stop-color="#7DFFFF" stop-opacity="0.02"/>
<stop offset="1" stop-color="#4BCCD2" stop-opacity="0.3"/>
</linearGradient>
<linearGradient id="paint1_linear_2314_509" x1="710.682" y1="-1.31812" x2="714.682" y2="1723.68" gradientUnits="userSpaceOnUse">
<stop stop-color="#7DFFFF" stop-opacity="0.02"/>
<stop offset="1" stop-color="#4BCCD2" stop-opacity="0.3"/>
</linearGradient>
<linearGradient id="paint2_linear_2314_509" x1="686.682" y1="-36.3179" x2="717.682" y2="1417.68" gradientUnits="userSpaceOnUse">
<stop stop-color="#7DFFFF" stop-opacity="0.02"/>
<stop offset="1" stop-color="#4BCCD2" stop-opacity="0.3"/>
</linearGradient>
<linearGradient id="paint3_linear_2314_509" x1="704.682" y1="-9.31784" x2="704.682" y2="1723.68" gradientUnits="userSpaceOnUse">
<stop stop-color="#7DFFFF" stop-opacity="0.02"/>
<stop offset="1" stop-color="#4BCCD2" stop-opacity="0.3"/>
</linearGradient>
<linearGradient id="paint4_linear_2314_509" x1="683.682" y1="-2.31787" x2="700.682" y2="1730.68" gradientUnits="userSpaceOnUse">
<stop stop-color="#7DFFFF" stop-opacity="0"/>
<stop offset="1" stop-color="#4BCCD2" stop-opacity="0.3"/>
</linearGradient>
</defs>
</svg>
